{
	"asset":{
		"generator":"Khronos glTF Blender I/O v3.5.30",
		"version":"2.0"
	},
	"scene":0,
	"scenes":[
		{
			"name":"Scene",
			"nodes":[
				0,
				3
			]
		}
	],
	"nodes":[
		{
			"name":"Empty",
			"translation":[
				0,
				15.622541427612305,
				0
			]
		},
		{
			"mesh":0,
			"name":"Cube.008",
			"scale":[
				0.7527273297309875,
				0.612209141254425,
				0.2048012912273407
			],
			"translation":[
				0.12431927770376205,
				0,
				0
			]
		},
		{
			"children":[
				1
			],
			"mesh":1,
			"name":"Sphere",
			"scale":[
				0.2366260290145874,
				0.6604472994804382,
				0.5393941402435303
			],
			"translation":[
				1.111961007118225,
				-0.0039010345935821533,
				-0.0003163735382258892
			]
		},
		{
			"children":[
				2
			],
			"mesh":2,
			"name":"Cube.001",
			"rotation":[
				-0.0353807657957077,
				0.21340741217136383,
				0.15968455374240875,
				0.9631751179695129
			],
			"scale":[
				1.8585749864578247,
				2.4474260807037354,
				2.9966881275177
			],
			"translation":[
				0.11613316088914871,
				-0.4355490207672119,
				-0.3183816075325012
			]
		}
	],
	"materials":[
		{
			"doubleSided":true,
			"name":"Material.002",
			"pbrMetallicRoughness":{
				"baseColorFactor":[
					0.800000011920929,
					0.800000011920929,
					0.800000011920929,
					1
				],
				"metallicFactor":0,
				"roughnessFactor":0.5
			}
		},
		{
			"doubleSided":true,
			"name":"Material.015",
			"pbrMetallicRoughness":{
				"baseColorFactor":[
					0.5435278415679932,
					0.09849953651428223,
					0.005565357860177755,
					1
				],
				"metallicFactor":0,
				"roughnessFactor":0.5
			}
		},
		{
			"doubleSided":true,
			"name":"Material",
			"pbrMetallicRoughness":{
				"baseColorFactor":[
					0.800000011920929,
					0.800000011920929,
					0.800000011920929,
					1
				],
				"metallicFactor":0,
				"roughnessFactor":0.5
			}
		}
	],
	"meshes":[
		{
			"name":"Cube.012",
			"primitives":[
				{
					"attributes":{
						"POSITION":0,
						"TEXCOORD_0":1,
						"NORMAL":2
					},
					"indices":3,
					"material":0
				}
			]
		},
		{
			"name":"Sphere.004",
			"primitives":[
				{
					"attributes":{
						"POSITION":4,
						"TEXCOORD_0":5,
						"NORMAL":6
					},
					"indices":7,
					"material":1
				}
			]
		},
		{
			"name":"Cube.007",
			"primitives":[
				{
					"attributes":{
						"POSITION":8,
						"TEXCOORD_0":9,
						"NORMAL":10
					},
					"indices":11,
					"material":2
				}
			]
		}
	],
	"accessors":[
		{
			"bufferView":0,
			"componentType":5126,
			"count":31733,
			"max":[
				1.3122516870498657,
				1.0000001192092896,
				3.1118078231811523
			],
			"min":[
				-0.8798826932907104,
				-1.0000001192092896,
				-3.1118075847625732
			],
			"type":"VEC3"
		},
		{
			"bufferView":1,
			"componentType":5126,
			"count":31733,
			"type":"VEC2"
		},
		{
			"bufferView":2,
			"componentType":5126,
			"count":31733,
			"type":"VEC3"
		},
		{
			"bufferView":3,
			"componentType":5123,
			"count":57600,
			"type":"SCALAR"
		},
		{
			"bufferView":4,
			"componentType":5126,
			"count":559,
			"max":[
				1.000000238418579,
				1,
				1.0000003576278687
			],
			"min":[
				-0.9999998211860657,
				-1,
				-1
			],
			"type":"VEC3"
		},
		{
			"bufferView":5,
			"componentType":5126,
			"count":559,
			"type":"VEC2"
		},
		{
			"bufferView":6,
			"componentType":5126,
			"count":559,
			"type":"VEC3"
		},
		{
			"bufferView":7,
			"componentType":5123,
			"count":2880,
			"type":"SCALAR"
		},
		{
			"bufferView":8,
			"componentType":5126,
			"count":30731,
			"max":[
				1.0000001192092896,
				1.6031913757324219,
				1.0547361373901367
			],
			"min":[
				-1.0000001192092896,
				-1.0578358173370361,
				-1.0547356605529785
			],
			"type":"VEC3"
		},
		{
			"bufferView":9,
			"componentType":5126,
			"count":30731,
			"type":"VEC2"
		},
		{
			"bufferView":10,
			"componentType":5126,
			"count":30731,
			"type":"VEC3"
		},
		{
			"bufferView":11,
			"componentType":5123,
			"count":172032,
			"type":"SCALAR"
		}
	],
	"bufferViews":[
		{
			"buffer":0,
			"byteLength":380796,
			"byteOffset":0,
			"target":34962
		},
		{
			"buffer":0,
			"byteLength":253864,
			"byteOffset":380796,
			"target":34962
		},
		{
			"buffer":0,
			"byteLength":380796,
			"byteOffset":634660,
			"target":34962
		},
		{
			"buffer":0,
			"byteLength":115200,
			"byteOffset":1015456,
			"target":34963
		},
		{
			"buffer":0,
			"byteLength":6708,
			"byteOffset":1130656,
			"target":34962
		},
		{
			"buffer":0,
			"byteLength":4472,
			"byteOffset":1137364,
			"target":34962
		},
		{
			"buffer":0,
			"byteLength":6708,
			"byteOffset":1141836,
			"target":34962
		},
		{
			"buffer":0,
			"byteLength":5760,
			"byteOffset":1148544,
			"target":34963
		},
		{
			"buffer":0,
			"byteLength":368772,
			"byteOffset":1154304,
			"target":34962
		},
		{
			"buffer":0,
			"byteLength":245848,
			"byteOffset":1523076,
			"target":34962
		},
		{
			"buffer":0,
			"byteLength":368772,
			"byteOffset":1768924,
			"target":34962
		},
		{
			"buffer":0,
			"byteLength":344064,
			"byteOffset":2137696,
			"target":34963
		}
	],
	"buffers":[
		{
			"byteLength":2481760,
			"uri":"data:application/octet-stream;base64,"
		}
	]
}
