{
    "asset" : {
        "generator" : "Khronos glTF Blender I/O v3.4.49",
        "version" : "2.0"
    },
    "extensionsUsed" : [
        "KHR_materials_specular",
        "KHR_materials_ior"
    ],
    "scene" : 0,
    "scenes" : [
        {
            "name" : "Scene",
            "nodes" : [
                0,
                1,
                2
            ]
        }
    ],
    "nodes" : [
        {
            "name" : "Empty",
            "translation" : [
                0,
                15.622541427612305,
                0
            ]
        },
        {
            "mesh" : 0,
            "name" : "Cylinder.018",
            "rotation" : [
                -0.4767303466796875,
                -0.8400081396102905,
                0.0015100849559530616,
                0.2590602934360504
            ],
            "scale" : [
                1.599570631980896,
                0.44866472482681274,
                1.595487117767334
            ],
            "translation" : [
                3.400637149810791,
                1.5519400835037231,
                -1.9247362613677979
            ]
        },
        {
            "mesh" : 1,
            "name" : "Sphere.006",
            "rotation" : [
                0.3513065278530121,
                -0.0011730488622561097,
                -0.013321851380169392,
                0.9361650943756104
            ],
            "scale" : [
                1.1259325742721558,
                1.2806670665740967,
                1.2807329893112183
            ],
            "translation" : [
                3.3091604709625244,
                -1.8579438924789429,
                -0.15381526947021484
            ]
        }
    ],
    "materials" : [
        {
            "doubleSided" : true,
            "extensions" : {
                "KHR_materials_specular" : {
                    "specularColorFactor" : [
                        0.3449247683327,
                        0.3449247683327,
                        0.3449247683327
                    ]
                },
                "KHR_materials_ior" : {
                    "ior" : 1.4500000476837158
                }
            },
            "name" : "Material.009",
            "pbrMetallicRoughness" : {
                "baseColorFactor" : [
                    0.8000000715255737,
                    0.48766252398490906,
                    0.34508082270622253,
                    1
                ],
                "metallicFactor" : 0,
                "roughnessFactor" : 0.5
            }
        },
        {
            "doubleSided" : true,
            "name" : "Material.008",
            "pbrMetallicRoughness" : {}
        },
        {
            "doubleSided" : true,
            "name" : "Material",
            "pbrMetallicRoughness" : {
                "baseColorFactor" : [
                    0.8000000715255737,
                    0.018630046397447586,
                    0.016623416915535927,
                    1
                ],
                "metallicFactor" : 0,
                "roughnessFactor" : 0.5
            }
        }
    ],
    "meshes" : [
        {
            "name" : "Cylinder.020",
            "primitives" : [
                {
                    "attributes" : {
                        "POSITION" : 0,
                        "TEXCOORD_0" : 1,
                        "NORMAL" : 2
                    },
                    "indices" : 3,
                    "material" : 0
                }
            ]
        },
        {
            "name" : "Mesh",
            "primitives" : [
                {
                    "attributes" : {
                        "POSITION" : 4,
                        "TEXCOORD_0" : 5,
                        "NORMAL" : 6
                    },
                    "indices" : 7,
                    "material" : 1
                },
                {
                    "attributes" : {
                        "POSITION" : 8,
                        "TEXCOORD_0" : 9,
                        "NORMAL" : 10
                    },
                    "indices" : 11,
                    "material" : 2
                }
            ]
        }
    ],
    "accessors" : [
        {
            "bufferView" : 0,
            "componentType" : 5126,
            "count" : 3334,
            "max" : [
                0.9935951828956604,
                1.0000004768371582,
                0.9935951828956604
            ],
            "min" : [
                -0.9935951828956604,
                -1.0000004768371582,
                -0.9935951828956604
            ],
            "type" : "VEC3"
        },
        {
            "bufferView" : 1,
            "componentType" : 5126,
            "count" : 3334,
            "type" : "VEC2"
        },
        {
            "bufferView" : 2,
            "componentType" : 5126,
            "count" : 3334,
            "type" : "VEC3"
        },
        {
            "bufferView" : 3,
            "componentType" : 5123,
            "count" : 16170,
            "type" : "SCALAR"
        },
        {
            "bufferView" : 4,
            "componentType" : 5126,
            "count" : 1341,
            "max" : [
                0.9681804180145264,
                3.1206841468811035,
                0.9681805372238159
            ],
            "min" : [
                -0.9681800007820129,
                1.1287630796432495,
                -0.9681801795959473
            ],
            "type" : "VEC3"
        },
        {
            "bufferView" : 5,
            "componentType" : 5126,
            "count" : 1341,
            "type" : "VEC2"
        },
        {
            "bufferView" : 6,
            "componentType" : 5126,
            "count" : 1341,
            "type" : "VEC3"
        },
        {
            "bufferView" : 7,
            "componentType" : 5123,
            "count" : 6720,
            "type" : "SCALAR"
        },
        {
            "bufferView" : 8,
            "componentType" : 5126,
            "count" : 1707,
            "max" : [
                1.009342908859253,
                1.196698546409607,
                1.0093432664871216
            ],
            "min" : [
                -1.0093427896499634,
                -0.9975767135620117,
                -1.0093427896499634
            ],
            "type" : "VEC3"
        },
        {
            "bufferView" : 9,
            "componentType" : 5126,
            "count" : 1707,
            "type" : "VEC2"
        },
        {
            "bufferView" : 10,
            "componentType" : 5126,
            "count" : 1707,
            "type" : "VEC3"
        },
        {
            "bufferView" : 11,
            "componentType" : 5123,
            "count" : 9024,
            "type" : "SCALAR"
        }
    ],
    "bufferViews" : [
        {
            "buffer" : 0,
            "byteLength" : 40008,
            "byteOffset" : 0,
            "target" : 34962
        },
        {
            "buffer" : 0,
            "byteLength" : 26672,
            "byteOffset" : 40008,
            "target" : 34962
        },
        {
            "buffer" : 0,
            "byteLength" : 40008,
            "byteOffset" : 66680,
            "target" : 34962
        },
        {
            "buffer" : 0,
            "byteLength" : 32340,
            "byteOffset" : 106688,
            "target" : 34963
        },
        {
            "buffer" : 0,
            "byteLength" : 16092,
            "byteOffset" : 139028,
            "target" : 34962
        },
        {
            "buffer" : 0,
            "byteLength" : 10728,
            "byteOffset" : 155120,
            "target" : 34962
        },
        {
            "buffer" : 0,
            "byteLength" : 16092,
            "byteOffset" : 165848,
            "target" : 34962
        },
        {
            "buffer" : 0,
            "byteLength" : 13440,
            "byteOffset" : 181940,
            "target" : 34963
        },
        {
            "buffer" : 0,
            "byteLength" : 20484,
            "byteOffset" : 195380,
            "target" : 34962
        },
        {
            "buffer" : 0,
            "byteLength" : 13656,
            "byteOffset" : 215864,
            "target" : 34962
        },
        {
            "buffer" : 0,
            "byteLength" : 20484,
            "byteOffset" : 229520,
            "target" : 34962
        },
        {
            "buffer" : 0,
            "byteLength" : 18048,
            "byteOffset" : 250004,
            "target" : 34963
        }
    ],
    "buffers" : [
        {
            "byteLength" : 268052,
            "uri" : "data:application/octet-stream;base64,"
        }
    ]
}
