<svg id="objects" xmlns="http://www.w3.org/2000/svg" viewBox="0 0 376 302"><defs><style>.cls-1{fill:#f38f23;}.cls-1,.cls-2{stroke:#fff;stroke-miterlimit:10;stroke-width:5px;}.cls-2{fill:#29a7b5;}</style></defs><path class="cls-1" d="M176.8,55.37c23.74-10.62,47.73-11.11,71.74-1.23,17.35,7.14,31,19,41.2,34.66a100.71,100.71,0,0,1,12.19,28.31c6.15,22.25,8.7,45,10.34,68s1.3,45.73.82,68.61c-.61,28.94-1,57.89-1.6,86.84,0,1.17.6,2.86-.66,3.4-1,.44-1.94-1-2.82-1.73q-17.14-13.74-34.25-27.51c-21.22-17.15-42.73-34-63.53-51.61a431.48,431.48,0,0,1-54-54.56c-9.12-11.07-17.85-22.4-23.59-35.66a89.13,89.13,0,0,1-4.4-60A88,88,0,0,1,155,69.45,81.6,81.6,0,0,1,176.8,55.37Z" transform="translate(-122.5 -44.5)"/><path class="cls-2" d="M444.8,55.56C468.19,66.91,484,85,491.85,109.72c5.68,17.88,5.41,35.95-.07,53.84-3,9.93-7.95,19-13.85,27.54-13.09,19-28.9,35.61-45.41,51.61s-34.2,30.38-52,44.72c-22.56,18.14-45,36.41-67.55,54.59-.91.74-1.8,2.3-3,1.68-1-.51-.46-2.14-.48-3.27q-.51-22-.95-43.92c-.5-27.28-1.45-54.56-1.3-81.84a432.12,432.12,0,0,1,7.09-76.43c2.62-14.1,5.7-28.07,12.16-41a89.18,89.18,0,0,1,43.16-42A88,88,0,0,1,420,47.94,81.41,81.41,0,0,1,444.8,55.56ZM425.18,97.81c-26.55-13.17-58.57-.27-70.68,25.6-12.45,26.57-.62,58.44,24.72,70.51,26.18,12.46,58.43.93,70.75-25.56C462.43,141.55,451.44,110.1,425.18,97.81Z" transform="translate(-122.5 -44.5)"/></svg>